<svg width="20" height="20" xmlns="http://www.w3.org/2000/svg"><path d="M3.8 12.538a6.137 6.137 0 0 1-1.81-4.37A6.14 6.14 0 0 1 3.8 3.8a6.139 6.139 0 0 1 4.369-1.81c1.65 0 3.202.643 4.369 1.81a6.138 6.138 0 0 1 1.81 4.37 6.14 6.14 0 0 1-1.81 4.37 6.137 6.137 0 0 1-4.369 1.809 6.137 6.137 0 0 1-4.37-1.81zm16.065 5.92l-5.264-5.264a8.102 8.102 0 0 0 1.736-5.025c0-2.182-.85-4.234-2.392-5.776A8.114 8.114 0 0 0 8.169 0C5.987 0 3.935.85 2.393 2.393A8.115 8.115 0 0 0 0 8.169c0 2.182.85 4.233 2.393 5.776a8.115 8.115 0 0 0 5.776 2.392 8.103 8.103 0 0 0 5.026-1.736l5.264 5.264 1.406-1.407z" fill="#000" fill-rule="evenodd"/></svg>